<?xml version="1.0" encoding="utf-8"?>
<!-- Generator: Adobe Illustrator 26.3.1, SVG Export Plug-In . SVG Version: 6.00 Build 0)  -->
<svg version="1.1" id="Layer_1" xmlns="http://www.w3.org/2000/svg" xmlns:xlink="http://www.w3.org/1999/xlink" x="0px" y="0px"
	 viewBox="0 0 120.63 100" style="enable-background:new 0 0 120.63 100;" xml:space="preserve">
<style type="text/css">
	.st0{fill:#182541;}
	.st1{fill:#17799D;}
</style>
<g>
	<g>
		<path class="st0" d="M39.71,61.7c2.25,1.28,4.82,2.04,7.33,2.25c2.27,0.2,4.53-0.11,6.6-0.86c1.95-0.67,4.07,0.37,4.73,2.32
			c0.96,2.69-1.53,5.48-4.29,4.86c-1.8-0.39-3.76-0.74-5.46-1.43c-2.44-0.91-4.7-2.29-6.65-3.99c-0.98-0.86-1.89-1.78-2.68-2.85
			c-0.08-0.11-0.06-0.26,0.05-0.34C39.47,61.56,39.61,61.63,39.71,61.7L39.71,61.7z"/>
	</g>
</g>
<g>
	<g>
		<path class="st0" d="M47.46,7.6c-1.84-3.76-5.43-6.49-9.42-7.77c-2.96-0.89-4.39,3.33-1.5,4.42c0.4,0.16,1.08,0.12,1.5,0.14
			c0.84,0.02,1.67,0.07,2.49,0.23c2.45,0.44,4.84,1.54,6.69,3.21C47.39,7.97,47.59,7.77,47.46,7.6L47.46,7.6z"/>
	</g>
</g>
<g>
	<g>
		<path class="st0" d="M32,92.06c-6.22,5.23-14.55,7.75-22.72,7.65c-1.14,0.03-2.74-0.16-3.89-0.23c-2.91-0.22-5.09-2.75-4.87-5.66
			c0.22-2.91,2.75-5.09,5.66-4.87c1,0.02,2.47,0.75,3.4,1.1c1.73,0.71,3.55,1.4,5.37,1.81c5.47,1.33,11.42,1.25,16.78-0.5
			C32.18,91.22,32.41,91.8,32,92.06L32,92.06z"/>
	</g>
</g>
<g>
	<g>
		<path class="st0" d="M92.5,84.6c7.14-0.69,14.33,2.11,19.78,6.79c3.94,3.53-0.91,9.38-5.11,6.14c-0.59-0.44-1.15-1.46-1.55-2.06
			c-0.78-1.2-1.6-2.38-2.57-3.43c-2.84-3.18-6.59-5.68-10.68-6.89C92.03,85.04,92.14,84.57,92.5,84.6L92.5,84.6z"/>
	</g>
</g>
<g>
	<g>
		<path class="st0" d="M105.79,85.29c4.11-1.94,8.99-1.81,13.24-0.19c3.1,1.24,1.45,5.8-1.73,4.75c-0.44-0.13-0.99-0.62-1.36-0.89
			c-0.72-0.55-1.46-1.08-2.27-1.49c-2.37-1.29-5.14-1.97-7.84-1.81C105.6,85.66,105.57,85.35,105.79,85.29L105.79,85.29z"/>
	</g>
</g>
<g>
	<path class="st1" d="M50.49,20.78c0.03,0.19-0.02,1.78-0.04,2.04c-0.02,0.26-0.16,0.5-0.41,0.71c-0.08,0.05-0.16,0.1-0.24,0.15
		c-0.08,0.04-0.19,0.08-0.33,0.11c-0.14,0.03-0.33,0.06-0.57,0.09c-0.25,0.03-0.57,0.06-0.98,0.1l0,0.19l-0.21,1.14
		c-0.05,0.31-0.13,0.68-0.25,1.1c-0.12,0.42-0.25,0.78-0.38,1.08c-0.72,1.69-1.66,2.95-2.83,3.79c-1.17,0.83-2.42,1.29-3.74,1.36
		c-1.32,0.08-2.64-0.2-3.96-0.82c-1.32-0.62-2.48-1.54-3.46-2.76c-0.99-1.22-1.74-2.7-2.27-4.46c-0.53-1.76-0.65-3.73-0.37-5.91
		c0.15-1.16,0.36-2.23,0.64-3.2c0.27-0.98,0.66-1.97,1.16-2.98c0.59-1.26,1.35-2.37,2.27-3.34c0.92-0.96,1.92-1.68,3.01-2.14
		c1.09-0.46,2.25-0.62,3.48-0.47c1.23,0.15,2.46,0.68,3.7,1.61c0.46,0.36,0.81,0.66,1.04,0.91c0.23,0.25,0.5,0.6,0.8,1.04
		c0.3,0.44,0.55,0.85,0.75,1.21c0.2,0.37,0.38,0.76,0.5,1.18c0.19,0.65-0.16,1.36-0.56,1.58c-0.59,0.32-1.65,0.3-2.11-0.15
		c-0.45-0.45-0.81-2.23-2.55-3.07c-0.7-0.34-2.27-0.32-3.03-0.1c-0.77,0.22-1.49,0.69-2.16,1.4c-0.68,0.71-1.28,1.65-1.8,2.81
		c-0.52,1.16-0.88,2.51-1.06,4.05c-0.11,0.85-0.1,1.76,0.02,2.74c0.12,0.98,0.33,1.86,0.62,2.63c0.32,0.81,0.79,1.56,1.39,2.26
		c0.6,0.7,1.26,1.21,1.98,1.54c0.72,0.33,1.45,0.42,2.2,0.25c0.75-0.16,1.43-0.7,2.05-1.62c0.13-0.17,0.25-0.36,0.35-0.56
		c0.1-0.2,0.19-0.39,0.27-0.56c0.08-0.17,0.13-0.32,0.15-0.45c0.03-0.12,0.03-0.2,0-0.22c-0.02-0.02-0.1,0-0.24,0.05
		c-0.13,0.05-0.28,0.12-0.45,0.21c-0.76,0.34-1.32-0.73-1.61-1.15c-0.18-0.24-0.78-1.79-0.39-2.05c0.39-0.26,0.85-0.49,1.39-0.71
		c0.54-0.21,1.13-0.4,1.79-0.55c0.65-0.15,1.29-0.28,1.91-0.38c0.62-0.1,1.21-0.19,1.76-0.26c0.55-0.07,1-0.13,1.34-0.18
		c0.49-0.06,0.94-0.03,1.13,0.14C50.35,20.34,50.46,20.54,50.49,20.78z"/>
</g>
<g>
	<path class="st1" d="M33.04,38.57c0.04,0.09,0.16,0.2,0.34,0.34c0.18,0.13,0.38,0.29,0.61,0.47l0.81,0.61l0.74,7.32
		c0.18,1.85,0.38,3.9,0.61,6.13c0.22,2.24,0.39,4.58,0.5,7.01c0.11,2.44,0.12,4.89,0.03,7.35c-0.09,2.46-0.34,4.81-0.74,7.05
		c-0.4,2.24-1.02,4.29-1.85,6.17c-0.83,1.87-1.95,3.45-3.37,4.71c-1.41,1.26-3.14,2.16-5.19,2.68c-2.04,0.52-4.5,0.53-7.38,0.03
		c-1.71-0.32-3.38-0.74-5.02-1.25c-1.64-0.52-3.14-1.11-4.51-1.76c-1.37-0.66-2.55-1.36-3.54-2.1c-0.99-0.75-1.71-1.48-2.16-2.2
		c-0.81-1.36-0.88-2.44-0.2-3.25c0.4-0.41,0.85-0.59,1.35-0.54c0.36,0.09,0.58,0.08,0.67-0.03c0.09-0.11,0.18-0.35,0.27-0.71
		c0.22-0.9,0.73-1.36,1.52-1.36c0.79,0,1.76,0.43,2.93,1.29c0.94,0.63,1.98,1.2,3.1,1.7c1.12,0.5,2.47,0.93,4.04,1.29
		c2.42,0.63,4.34,0.83,5.76,0.58c1.41-0.25,2.51-0.88,3.3-1.9c0.79-1.02,1.32-2.37,1.62-4.07c0.29-1.7,0.5-3.69,0.64-6
		c0.04-0.63,0.08-1.34,0.1-2.13c0.02-0.79,0.03-1.55,0.03-2.27c0-0.72,0-1.33,0-1.83c0-0.5-0.02-0.77-0.07-0.81
		c0-0.04-0.1,0.02-0.3,0.2c-0.2,0.18-0.46,0.41-0.77,0.68c-2.87,2.67-5.71,4.59-8.52,5.76c-2.81,1.18-5.38,1.73-7.71,1.66
		c-2.34-0.07-4.38-0.68-6.13-1.83c-1.75-1.15-3.04-2.71-3.87-4.68c-0.83-1.97-1.12-4.27-0.88-6.91c0.25-2.64,1.2-5.5,2.86-8.57
		c1.12-2.03,2.55-3.78,4.28-5.25c1.73-1.47,3.64-2.5,5.73-3.08c2.09-0.59,4.27-0.68,6.53-0.27c2.27,0.41,4.5,1.47,6.7,3.19
		c0.36,0.27,0.67,0.49,0.94,0.64c0.27,0.16,0.45,0.22,0.54,0.17c0.13-0.14,0.16-0.59,0.07-1.36c-0.09-0.68-0.01-1.26,0.24-1.76
		c0.25-0.5,0.59-0.84,1.04-1.02c0.31-0.09,0.47-0.25,0.47-0.47c-0.05-0.23,0.13-0.52,0.54-0.88c0.4-0.36,0.74-0.54,1.01-0.54
		c0.18,0,0.43,0.12,0.74,0.37C31.8,37.36,32.32,37.85,33.04,38.57z M24.01,53.07c0.27,0,0.5,0,0.71,0c0.2,0,0.3-0.04,0.3-0.14
		c0-0.13-0.11-0.36-0.34-0.68c-0.23-0.32-0.48-0.65-0.77-1.02c-0.29-0.36-0.61-0.72-0.94-1.08c-0.34-0.36-0.64-0.65-0.91-0.88
		c-1.26-1.04-2.56-1.72-3.91-2.03c-1.35-0.32-2.54-0.2-3.57,0.34c-1.71,0.86-3.05,2.01-4.04,3.46c-0.99,1.45-1.63,2.88-1.92,4.3
		c-0.29,1.42-0.24,2.69,0.17,3.8c0.4,1.11,1.16,1.77,2.26,2c1.1,0.23,2.54-0.15,4.31-1.12c1.77-0.97,3.9-2.84,6.37-5.59
		c0.63-0.68,1.04-1.09,1.25-1.25C23.17,53.02,23.51,52.98,24.01,53.07z"/>
</g>
<g>
	<path class="st1" d="M58.37,54.84c0.21-0.09,0.47-0.06,0.79,0.09c0.32,0.15,0.5,0.35,0.56,0.59c0.12,0.33,0.14,0.62,0.07,0.86
		c-0.08,0.24-0.28,0.59-0.61,1.04c-0.75,1-1.74,1.75-2.97,2.26c-1.23,0.51-2.56,0.8-3.98,0.86c-1.43,0.06-2.9-0.11-4.41-0.52
		c-1.52-0.41-2.93-1.03-4.25-1.86c-1.32-0.83-2.48-1.88-3.47-3.15c-0.99-1.27-1.67-2.75-2.03-4.44c-0.54-2.41-0.38-4.82,0.5-7.2
		c0.87-2.38,2.37-4.54,4.5-6.48c2.04-1.87,4.06-3.04,6.05-3.51c2-0.47,3.8-0.45,5.4,0.07c1.6,0.51,2.93,1.4,3.98,2.65
		c1.05,1.25,1.67,2.66,1.85,4.21c0.18,1.56-0.16,3.15-1.01,4.78c-0.85,1.63-2.39,3.08-4.61,4.35c-1.77,1-3.47,1.45-5.11,1.36
		c-1.64-0.09-3.25-0.56-4.84-1.4c-0.6-0.3-0.93-0.45-0.99-0.45c0,0.03,0.05,0.17,0.14,0.41c0.09,0.24,0.19,0.53,0.32,0.86
		c0.42,1.24,1.05,2.17,1.89,2.81c0.84,0.63,1.79,1.05,2.86,1.24c1.06,0.2,2.2,0.2,3.4,0.02c1.2-0.18,2.39-0.48,3.56-0.91
		c0.6-0.21,1.09-0.23,1.46-0.05c0.37,0.18,0.59,0.53,0.65,1.04C58.08,54.72,58.19,54.87,58.37,54.84z M45.05,42.75l0.36,0.32
		c1.08,0.97,2.13,1.56,3.15,1.79c1.02,0.23,1.94,0.22,2.77-0.02c0.82-0.24,1.51-0.64,2.05-1.2c0.54-0.56,0.87-1.15,0.99-1.77
		c0.12-0.62,0-1.19-0.36-1.72c-0.36-0.53-1.04-0.88-2.03-1.06c-0.99-0.15-2-0.01-3.02,0.43c-1.02,0.44-2,1.17-2.93,2.2L45.05,42.75z
		"/>
</g>
<g>
	<path class="st1" d="M92.39,42.23c-0.06,0.15-0.11,0.27-0.14,0.36c-0.03,0.09-0.02,0.2,0.02,0.32c0.04,0.12,0.13,0.28,0.25,0.48
		c0.12,0.2,0.3,0.48,0.54,0.84c1.11,1.66,1.81,3.35,2.12,5.07c0.3,1.72,0.29,3.37-0.02,4.96c-0.32,1.59-0.89,3.06-1.73,4.42
		c-0.84,1.36-1.83,2.51-2.97,3.46c-1.14,0.95-2.39,1.65-3.74,2.11c-1.35,0.45-2.7,0.57-4.05,0.34c-1.35-0.23-2.65-0.85-3.89-1.86
		c-1.25-1.01-2.33-2.5-3.26-4.46c-0.42-0.84-0.71-1.65-0.88-2.42c-0.17-0.77-0.28-1.74-0.34-2.92c-0.09-2.38,0.09-4.56,0.54-6.52
		c0.45-1.96,1.09-3.7,1.94-5.21c0.84-1.51,1.82-2.8,2.93-3.87c1.11-1.07,2.27-1.9,3.47-2.49c1.2-0.59,2.39-0.93,3.56-1.02
		c1.17-0.09,2.25,0.07,3.24,0.48c0.99,0.41,1.82,1.07,2.5,1.99s1.1,2.11,1.28,3.55c0.06,0.36,0.07,0.62,0.02,0.77
		c-0.05,0.15-0.14,0.33-0.29,0.54c-0.21,0.33-0.4,0.5-0.58,0.5c-0.06,0-0.14,0.06-0.25,0.18C92.53,41.94,92.45,42.08,92.39,42.23z
		 M79.97,51.24c-0.12,1.84,0.01,3.32,0.41,4.44c0.39,1.12,0.91,1.93,1.58,2.45c0.66,0.51,1.4,0.76,2.21,0.72
		c0.81-0.03,1.59-0.26,2.34-0.7c0.75-0.44,1.42-1.06,2.03-1.86c0.6-0.8,1.01-1.72,1.22-2.76c0.21-1.04,0.16-2.17-0.14-3.37
		c-0.3-1.21-0.95-2.45-1.94-3.71c-0.36-0.45-0.58-0.85-0.65-1.2c-0.08-0.35-0.04-0.69,0.11-1.02c0.12-0.21,0.09-0.5-0.09-0.86
		c-0.12-0.24-0.18-0.42-0.18-0.54c0-0.12,0.03-0.29,0.09-0.5c0.12-0.24,0.37-0.51,0.74-0.79c0.37-0.29,0.68-0.43,0.92-0.43
		c0.24,0,0.28-0.19,0.13-0.57c-0.15-0.38-0.44-0.72-0.88-1.02c-0.44-0.3-0.98-0.42-1.64-0.36c-0.66,0.06-1.38,0.51-2.16,1.36
		c-0.54,0.6-1.05,1.31-1.53,2.13c-0.48,0.82-0.9,1.69-1.26,2.63c-0.36,0.94-0.65,1.91-0.88,2.92C80.17,49.2,80.03,50.22,79.97,51.24
		z"/>
</g>
<g>
	<path class="st1" d="M89.68,76.96c0.6,0.14,1.04,0.42,1.33,0.86c0.29,0.44,0.35,0.98,0.16,1.62c-0.37,1.33-1.59,2.44-3.66,3.35
		c-2.07,0.91-4.61,1.43-7.62,1.59c-4.28,0.23-7.74-0.14-10.41-1.09c-2.66-0.96-4.7-2.34-6.12-4.16c-1.42-1.82-2.33-3.98-2.74-6.48
		c-0.41-2.5-0.51-5.19-0.3-8.06c0.21-2.87,0.63-5.83,1.26-8.88c0.63-3.05,1.27-6.04,1.89-8.96c0.2-0.9,0.4-1.84,0.58-2.81
		c0.19-0.97,0.36-1.89,0.52-2.78c0.16-0.88,0.3-1.68,0.42-2.39c0.12-0.71,0.22-1.28,0.3-1.71c0.1-0.69,0.18-1.25,0.23-1.69
		c0.06-0.43,0.12-0.78,0.18-1.03c0.06-0.26,0.14-0.46,0.24-0.6c0.1-0.14,0.22-0.28,0.36-0.4c0.85-0.85,1.72-0.87,2.61-0.05
		c0.24,0.24,0.4,0.36,0.49,0.37c0.09,0.01,0.22-0.09,0.42-0.29c0.85-0.81,1.65-0.79,2.41,0.06l0.67,0.64l-0.37,4.69
		c-0.1,1.3-0.32,2.92-0.65,4.83c-0.33,1.92-0.68,3.98-1.05,6.18c-0.37,2.2-0.75,4.46-1.13,6.76c-0.38,2.31-0.69,4.5-0.92,6.58
		c-0.23,2.08-0.36,3.94-0.38,5.58c-0.02,1.64,0.13,2.89,0.45,3.74c0.21,0.59,0.47,1.07,0.77,1.44c0.3,0.37,0.68,0.7,1.16,0.98
		c0.48,0.28,1.07,0.5,1.77,0.67c0.7,0.17,1.57,0.31,2.6,0.44c3.78,0.48,6.91,0.2,9.39-0.82c0.49-0.18,0.99-0.34,1.5-0.47
		c0.51-0.13,0.87-0.19,1.09-0.18c0.52,0.04,0.94,0.22,1.26,0.53c0.32,0.31,0.47,0.7,0.43,1.18c-0.02,0.3,0,0.49,0.09,0.56
		C88.99,76.81,89.25,76.88,89.68,76.96z"/>
</g>
<g>
	<path class="st1" d="M61.44,11.39c-0.03,0.09-0.06,0.15-0.08,0.2c-0.02,0.05-0.01,0.11,0.01,0.18c0.03,0.07,0.07,0.16,0.14,0.27
		c0.07,0.11,0.17,0.27,0.31,0.47c0.63,0.94,1.03,1.9,1.2,2.87c0.17,0.97,0.17,1.91-0.01,2.81c-0.18,0.9-0.51,1.73-0.99,2.5
		c-0.48,0.77-1.04,1.42-1.69,1.96c-0.65,0.54-1.36,0.94-2.13,1.19c-0.77,0.26-1.54,0.32-2.31,0.19c-0.77-0.13-1.51-0.48-2.22-1.05
		c-0.71-0.57-1.33-1.41-1.86-2.52c-0.24-0.48-0.41-0.94-0.5-1.37c-0.09-0.44-0.16-0.99-0.19-1.65c-0.05-1.35,0.05-2.58,0.31-3.69
		c0.26-1.11,0.62-2.09,1.1-2.95c0.48-0.85,1.03-1.58,1.67-2.19C54.84,8,55.5,7.53,56.18,7.2c0.68-0.33,1.36-0.53,2.02-0.58
		c0.67-0.05,1.28,0.04,1.85,0.27c0.56,0.23,1.04,0.61,1.42,1.13c0.38,0.52,0.63,1.19,0.73,2.01c0.03,0.2,0.04,0.35,0.01,0.44
		c-0.03,0.09-0.08,0.19-0.17,0.31c-0.12,0.19-0.23,0.28-0.33,0.28c-0.03,0-0.08,0.03-0.14,0.1C61.52,11.23,61.47,11.3,61.44,11.39z
		 M54.36,16.49c-0.07,1.04,0.01,1.88,0.23,2.51c0.22,0.63,0.52,1.09,0.9,1.38c0.38,0.29,0.79,0.43,1.26,0.41
		c0.46-0.02,0.91-0.15,1.33-0.4c0.43-0.25,0.81-0.6,1.15-1.05c0.34-0.45,0.57-0.97,0.69-1.56c0.12-0.59,0.09-1.23-0.08-1.91
		c-0.17-0.68-0.77-0.95-1.1-2.1c-0.33-1.15,0.7-3.13,0.62-3.34c-0.09-0.21-0.25-0.41-0.5-0.58c-0.25-0.17-0.56-0.24-0.94-0.21
		c-0.38,0.03-0.79,0.29-1.23,0.77c-0.31,0.34-0.6,0.74-0.87,1.2c-0.27,0.46-0.51,0.96-0.72,1.49s-0.37,1.08-0.5,1.65
		C54.48,15.33,54.4,15.91,54.36,16.49z"/>
</g>
<g>
	<path class="st1" d="M105.28,27.78c0.12,0.27,0.19,1.17,0.23,2.69c0.04,1.53,0.07,3.41,0.09,5.65c0.02,2.24,0.03,4.68,0.03,7.33
		c0,2.65-0.01,5.2-0.03,7.68c-0.02,2.47-0.04,4.71-0.06,6.72c-0.02,2.01-0.01,3.5,0.03,4.46c0.08,1.85,0.11,3.43,0.09,4.72
		c-0.02,1.3-0.07,2.04-0.14,2.23c-0.15,0.46-0.47,0.79-0.96,0.99c-0.48,0.19-0.94,0.17-1.36-0.06c-0.31-0.15-0.51-0.21-0.61-0.17
		c-0.1,0.04-0.26,0.21-0.49,0.52c-0.23,0.35-0.57,0.56-1.01,0.64c-0.44,0.08-0.88-0.04-1.3-0.35c-0.15-0.08-0.32-0.24-0.49-0.49
		c-0.17-0.25-0.32-0.53-0.43-0.84c-0.12-0.23-0.2-0.48-0.26-0.75c-0.06-0.27-0.11-0.67-0.14-1.19c-0.04-0.52-0.07-1.23-0.09-2.14
		c-0.02-0.91-0.05-2.11-0.09-3.62c-0.08-3.75-0.11-7.59-0.09-11.53c0.02-3.94,0.12-7.84,0.32-11.7c0.04-0.7,0.07-1.41,0.09-2.14
		c0.02-0.73,0.04-1.43,0.06-2.09c0.02-0.66,0.04-1.24,0.06-1.77c0.02-0.52,0.03-0.94,0.03-1.25c0.04-1.35,0.13-2.44,0.29-3.27
		c0.15-0.83,0.39-1.32,0.7-1.48c0.39-0.19,0.78-0.27,1.19-0.23c0.41,0.04,0.74,0.21,1.01,0.52c0.19,0.23,0.33,0.37,0.41,0.41
		c0.08,0.04,0.19-0.02,0.35-0.17c0.19-0.23,0.52-0.35,0.98-0.35c0.46,0,0.83,0.1,1.1,0.29c0.08,0.08,0.17,0.18,0.29,0.32
		C105.16,27.48,105.24,27.62,105.28,27.78z M104.35,73.89c0.27,0.27,0.43,0.53,0.49,0.78c0.06,0.25,0.11,0.76,0.14,1.53
		c0.04,0.85,0.04,1.39,0,1.62c-0.04,0.23-0.19,0.48-0.46,0.75c-0.23,0.23-0.43,0.39-0.61,0.46c-0.17,0.08-0.43,0.08-0.78,0
		c-0.58-0.08-0.87-0.04-0.87,0.12c0,0.08-0.06,0.19-0.17,0.35c-0.12,0.15-0.25,0.3-0.41,0.43c-0.15,0.13-0.31,0.25-0.46,0.35
		c-0.15,0.1-0.29,0.15-0.41,0.15c-0.12,0-0.27-0.04-0.46-0.12c-0.19-0.08-0.37-0.19-0.52-0.35c-0.62-0.42-1.04-1.11-1.27-2.06
		c-0.23-0.95-0.25-1.98-0.06-3.1c0.19-0.77,0.56-1.28,1.1-1.53c0.54-0.25,1.08-0.13,1.62,0.38c0.27,0.27,0.44,0.41,0.52,0.41
		c0.08,0,0.23-0.1,0.46-0.29C102.9,73.2,103.62,73.23,104.35,73.89z"/>
</g>
<g>
	<g>
		<path class="st0" d="M51.14,27.7c5.26,2.51,11.51,2.75,17.16,1.2c0.8-0.19,1.87-0.61,2.66-0.86c1.98-0.68,3.04-2.83,2.36-4.81
			c-0.68-1.98-2.83-3.04-4.81-2.36c-0.69,0.19-1.58,0.97-2.16,1.37c-1.07,0.81-2.21,1.62-3.4,2.23c-3.56,1.92-7.71,2.93-11.75,2.68
			C50.86,27.15,50.8,27.6,51.14,27.7L51.14,27.7z"/>
	</g>
</g>
</svg>
